<svg width="20" height="20" viewBox="0 0 20 20" fill="none" xmlns="http://www.w3.org/2000/svg">

    <path
        d="M14.1695 0.929596C13.237 0.929596 12.3457 1.14337 11.5205 1.56502C10.9588 1.85199 10.4428 2.23327 10 2.68564C9.5572 2.23327 9.0412 1.85199 8.47946 1.56502C7.65423 1.14337 6.76297 0.929596 5.83043 0.929596C2.61555 0.929596 0 3.54514 0 6.76007C0 9.03714 1.2026 11.4556 3.57435 13.9483C5.55464 16.0296 7.97913 17.7645 9.66429 18.8534L10 19.0704L10.3357 18.8534C12.0209 17.7645 14.4454 16.0296 16.4257 13.9483C18.7974 11.4556 20 9.03714 20 6.76007C20 3.54514 17.3845 0.929596 14.1695 0.929596ZM15.5294 13.0955C13.7596 14.9555 11.6038 16.5368 10 17.5951C8.39616 16.5368 6.24037 14.9555 4.4706 13.0955C2.32499 10.8406 1.23711 8.70902 1.23711 6.76007C1.23711 4.22729 3.29769 2.16671 5.83047 2.16671C7.28866 2.16671 8.62817 2.83652 9.50544 4.00436L10 4.66271L10.4946 4.00436C11.3718 2.83652 12.7113 2.16671 14.1695 2.16671C16.7023 2.16671 18.7629 4.22729 18.7629 6.76007C18.7629 8.70902 17.675 10.8406 15.5294 13.0955Z"
        fill="#333333" />

</svg>